<?xml version="1.0" encoding="UTF-8"?>
<svg id="Capa_1" data-name="Capa 1" xmlns="http://www.w3.org/2000/svg" viewBox="0 0 439.87 328.41">
  <defs>
    <style>
      .cls-1 {
        fill: #7289da;
      }
    </style>
  </defs>
  <path class="cls-1" d="M326.74,0H113.14C50.75,0,0,50.75,0,113.14v102.13c0,62.39,50.75,113.14,113.14,113.14h213.6c62.39,0,113.14-50.75,113.14-113.14v-102.13c0-62.39-50.75-113.14-113.14-113.14ZM424.12,211.61c0,57.91-47.12,105.03-105.03,105.03H120.79c-57.92,0-105.04-47.12-105.04-105.03v-94.82C15.76,58.88,62.87,11.76,120.79,11.76h198.3c57.91,0,105.03,47.12,105.03,105.04v94.82ZM319.09,55.39H120.79c-33.86,0-61.41,27.55-61.41,61.41v94.82c0,33.86,27.55,61.41,61.41,61.41h198.3c33.86,0,61.4-27.55,61.4-61.41v-94.82c0-33.86-27.54-61.41-61.4-61.41ZM186.06,185.24c0,.06,0,.13,0,.19-14.91.97-28.37,2.55-39.6,4.58-.43-1.51-.66-3.12-.66-4.77v-42.07c0-9.82,7.96-17.77,17.78-17.77h4.71c9.82,0,17.78,7.95,17.78,17.77v42.07ZM294.08,185.24c0,1.65-.23,3.26-.66,4.77-11.22-2.04-24.69-3.62-39.59-4.58,0-.06,0-.13,0-.19v-42.07c0-9.82,7.96-17.77,17.77-17.77h4.72c9.81,0,17.77,7.95,17.77,17.77v42.07Z"/>
</svg>